<svg id="Capa_1" enable-background="new 0 0 511.999 511.999" height="512" viewBox="0 0 511.999 511.999" width="512" xmlns="http://www.w3.org/2000/svg"><g><g><path d="m319.209 445.891c-9.486-6.328-15.263-17.521-15.263-29.575v-30.161l-4.379-4.181h-82.929l-8.585 4.181v30.161c0 12.054-5.776 23.247-15.263 29.575l-21.257 14.18 4.414 4.06h160.964l3.556-4.06z" fill="#4a80aa"/><path d="m236.69 445.891c9.487-6.328 15.263-17.521 15.263-29.575v-30.161l8.585-4.181h-43.9l-8.585 4.181v30.161c0 12.054-5.776 23.247-15.263 29.575l-21.257 14.18 4.414 4.06h43.9l-4.414-4.06z" fill="#407093"/><g><path d="m482.31 19.791h-452.621c-16.371 0-29.689 13.318-29.689 29.689v306.986c0 16.371 13.318 29.689 29.689 29.689h452.621c16.371 0 29.689-13.318 29.689-29.689v-306.986c0-16.371-13.318-29.689-29.689-29.689z" fill="#3f6d8e"/></g><path d="m33.652 356.466v-306.986c0-16.371 13.318-29.689 29.689-29.689h-33.652c-16.371 0-29.689 13.318-29.689 29.689v306.986c0 16.371 13.318 29.689 29.689 29.689h33.652c-16.371 0-29.689-13.318-29.689-29.689z" fill="#365e7d"/><path d="m475.211 85.8h-435.762l-7.312 4.336v259.61c0 2.36 1.912 4.272 4.272 4.272h439.181c2.359 0 4.272-1.912 4.272-4.272 0-134.752 0-123.787 0-259.61z" fill="#e4f6ff"/><path d="m78.531 349.746v-263.946h-39.082l-7.312 4.336v259.61c0 2.36 1.912 4.272 4.272 4.272h46.394c-2.36 0-4.272-1.912-4.272-4.272z" fill="#d3effb"/><path d="m358.159 460.071h-204.319c-5.689 0-10.301 4.612-10.301 10.301v11.535c0 5.69 4.612 10.301 10.301 10.301h204.319c5.689 0 10.301-4.612 10.301-10.301v-11.535c0-5.69-4.612-10.301-10.301-10.301z" fill="#3f6d8e"/><path d="m187.439 481.907v-11.535c0-5.69 4.612-10.301 10.301-10.301h-43.9c-5.689 0-10.301 4.612-10.301 10.301v11.535c0 5.69 4.612 10.301 10.301 10.301h43.9c-5.689 0-10.301-4.612-10.301-10.301z" fill="#365e7d"/><path d="m78.531 51.928h-42.122c-2.359 0-4.272 1.912-4.272 4.272v33.936h46.394l1.867-1.502v-34.125z" fill="#dd636e"/><path d="m475.59 51.928h-397.059v38.208h401.331c0-17.883 0-30.339 0-33.936 0-2.36-1.913-4.272-4.272-4.272z" fill="#b1e4f9"/></g><path d="m311.425 301.634v-78.254c0-1.273-1.032-2.304-2.304-2.304h-25.922c-1.273 0-2.304 1.032-2.304 2.304v78.254z" fill="#dd636e"/><path d="m372.487 301.634v-106.585c0-1.273-1.032-2.304-2.304-2.304h-25.923c-1.273 0-2.304 1.032-2.304 2.304v106.586h30.531z" fill="#ffaa5b"/><path d="m433.549 301.634v-134.917c0-1.273-1.032-2.304-2.304-2.304h-25.922c-1.273 0-2.304 1.032-2.304 2.304v134.918h30.53z" fill="#b3e59f"/><path d="m300.54 221.076h-17.341c-1.273 0-2.304 1.032-2.304 2.304v78.254h17.341v-78.254c0-1.272 1.031-2.304 2.304-2.304z" fill="#da4a54"/><path d="m361.602 192.744h-17.341c-1.273 0-2.304 1.032-2.304 2.304v106.586h17.341v-106.585c-.001-1.273 1.031-2.305 2.304-2.305z" fill="#ff9838"/><path d="m422.664 164.412h-17.341c-1.273 0-2.304 1.032-2.304 2.304v134.918h17.341v-134.917c-.001-1.273 1.031-2.305 2.304-2.305z" fill="#95d6a4"/><g><path d="m441.313 309.36h-168.176c-4.267 0-7.726-3.459-7.726-7.726 0-4.268 3.459-7.726 7.726-7.726h168.176c4.267 0 7.726 3.459 7.726 7.726s-3.459 7.726-7.726 7.726z" fill="#b1e4f9"/></g><g><path d="m82.384 148.208h141.229v153.426h-141.229z" fill="#3f6d8e"/><path d="m82.384 148.208h37.949v153.426h-37.949z" fill="#365e7d"/><path d="m152.998 238.017h-29.808c-2.736 0-4.954 2.218-4.954 4.954v58.663h34.763l1.717-2.506v-59.235z" fill="#d3effb"/><path d="m133.665 195.762h-1.167c-10.677 0-19.333-8.656-19.333-19.333v-41.79h39.833v41.79c0 10.677-8.656 19.333-19.333 19.333z" fill="#ffaa5b"/><path d="m152.998 134.638v41.207c0 11 8.917 19.917 19.917 19.917 11 0 19.917-8.917 19.917-19.917v-41.207z" fill="#dd636e"/><path d="m73.332 142.371v33.474c0 11 8.917 19.917 19.917 19.917 10.999 0 19.917-8.917 19.917-19.917v-41.207h-32.102c-4.27 0-7.732 3.462-7.732 7.733z" fill="#dd636e"/><path d="m224.932 134.638h-32.101v41.207c0 11 8.917 19.917 19.917 19.917 10.999 0 19.917-8.917 19.917-19.917v-33.474c0-4.271-3.462-7.733-7.733-7.733z" fill="#ffaa5b"/><path d="m131.536 175.845v-41.207h-18.371v41.207c0 11 8.917 19.917 19.917 19.917 3.316 0 6.436-.822 9.186-2.256-6.374-3.321-10.732-9.977-10.732-17.661z" fill="#ff9838"/><path d="m171.37 175.845v-41.207h-18.372v41.207c0 10.999 8.917 19.917 19.917 19.917 3.316 0 6.436-.822 9.186-2.256-6.373-3.321-10.731-9.977-10.731-17.661z" fill="#da4a54"/><path d="m91.703 175.845v-41.207h-10.639c-4.271 0-7.733 3.462-7.733 7.732v33.475c0 10.999 8.917 19.917 19.917 19.917 3.316 0 6.436-.822 9.186-2.256-6.373-3.321-10.731-9.977-10.731-17.661z" fill="#da4a54"/><path d="m211.203 175.845v-41.207h-18.372v41.207c0 10.999 8.917 19.917 19.917 19.917 3.316 0 6.436-.822 9.186-2.256-6.373-3.321-10.731-9.977-10.731-17.661z" fill="#ff9838"/><path d="m182.806 238.017h-29.808v63.617h34.762v-58.663c0-2.736-2.218-4.954-4.954-4.954z" fill="#e4f6ff"/><g><path d="m232.665 309.36h-159.334c-4.267 0-7.726-3.459-7.726-7.726s3.459-7.726 7.726-7.726h159.334c4.267 0 7.726 3.459 7.726 7.726s-3.459 7.726-7.726 7.726z" fill="#b3e59f"/></g></g></g></svg>